<?xml version="1.0" encoding="iso-8859-1"?>
<!-- Uploaded to: SVG Repo, www.svgrepo.com, Generator: SVG Repo Mixer Tools -->
<svg height="800px" width="800px" version="1.1" id="Layer_1" xmlns="http://www.w3.org/2000/svg" xmlns:xlink="http://www.w3.org/1999/xlink" 
	 viewBox="0 0 512 512" xml:space="preserve">
<g>
	<path style="fill:#2D527C;" d="M60.76,139.885c-7.812,0-14.144-6.332-14.144-14.144V60.76c0-7.812,6.332-14.144,14.144-14.144
		h64.98c7.812,0,14.144,6.332,14.144,14.144s-6.332,14.144-14.144,14.144H74.903v50.837
		C74.903,133.553,68.571,139.885,60.76,139.885z"/>
	<path style="fill:#2D527C;" d="M451.24,465.384h-64.98c-7.812,0-14.144-6.332-14.144-14.144s6.332-14.144,14.144-14.144h50.836
		V386.26c0-7.812,6.332-14.144,14.144-14.144s14.144,6.332,14.144,14.144v64.98C465.384,459.05,459.05,465.384,451.24,465.384z"/>
	<path style="fill:#2D527C;" d="M497.856,512H14.144C6.332,512,0,505.668,0,497.856V14.144C0,6.332,6.332,0,14.144,0h483.713
		C505.668,0,512,6.332,512,14.144v483.713C512,505.668,505.668,512,497.856,512z M28.287,483.713h455.425V28.287H28.287V483.713z"/>
</g>
<path style="fill:#CEE8FA;" d="M387.782,240.439c7.688-19.984,11.106-37.319,13.13-51.381c3.597-24.992-7.247-56.579-42.36-59.638
	l0,0c-46.303-2.761-67.774,22.77-82.095,69.465c7.374-3.039,14.541-4.573,21.535-4.573c14.741,0,21.264,8.27,19.522,24.863
	c-0.867,10.05-7.38,24.664-19.522,43.85c-12.2,19.211-21.307,28.808-27.354,28.808c-7.857,0-15.008-14.847-21.535-44.502
	c-2.194-8.731-6.104-30.973-11.714-66.766c-5.259-33.157-19.148-48.646-41.729-46.466c-9.554,0.875-23.86,9.622-42.964,26.181
	c-13.933,12.657-28.05,25.316-42.405,37.967l13.675,17.654c13.052-9.169,20.684-13.732,22.8-13.732
	c10.007,0,19.357,15.698,28.045,47.084c7.797,28.829,15.654,57.617,23.486,86.405c11.67,31.412,26.05,47.124,42.964,47.124
	c27.364,0,68.256-23.596,107.762-75.083"/>
<path style="fill:#2D527C;" d="M241.261,396.926c-23.416,0-42.333-18.955-56.222-56.341c-0.147-0.399-0.277-0.803-0.389-1.214
	l-6.243-22.935c-5.759-21.153-11.52-42.311-17.248-63.489c-6.394-23.098-11.732-31.987-14.371-35.247
	c-2.71,1.629-7.267,4.561-14.69,9.777c-6.182,4.342-14.685,3.061-19.312-2.912L99.11,206.91c-4.57-5.901-3.769-14.337,1.829-19.272
	c13.774-12.141,27.593-24.514,42.247-37.826c0.082-0.074,0.164-0.147,0.246-0.218c21.923-19.005,38.109-28.403,50.937-29.579
	c17.513-1.693,48.312,3.628,56.988,58.335c6.858,43.759,10.018,59.788,11.462,65.533c0.034,0.136,0.066,0.272,0.096,0.407
	c3.725,16.924,6.993,25.761,9.167,30.279c2.885-3.112,7.415-8.806,13.97-19.126c14.238-22.501,16.995-33.143,17.37-37.482
	c0.007-0.088,0.016-0.174,0.025-0.26c0.69-6.582-0.622-8.425-0.636-8.441c-0.001,0-1.102-0.802-4.819-0.802
	c-5.141,0-10.422,1.147-16.146,3.506c-5.062,2.086-10.868,1.065-14.913-2.619c-4.045-3.684-5.602-9.372-3.998-14.605
	c11.946-38.949,33.718-83.172,96.46-79.438c0.129,0.007,0.257,0.017,0.385,0.028c17.436,1.519,31.938,8.985,41.936,21.593
	c11.124,14.026,16.057,34.269,13.196,54.15c-1.801,12.513-5.203,31.769-13.929,54.446c-2.805,7.29-10.99,10.927-18.279,8.121
	c-7.29-2.805-10.926-10.99-8.121-18.279c7.7-20.01,10.725-37.158,12.33-48.316c1.747-12.145-1.074-24.616-7.36-32.543
	c-5.086-6.413-12.502-10.104-22.043-10.973c-28.567-1.656-46.005,8.609-58.997,36.645c10.826,0.105,19.343,3.522,25.319,10.158
	c6.476,7.191,9.087,17.351,7.762,30.2c-1.126,12.592-8.008,28.505-21.65,50.061c-16.178,25.473-27.195,35.389-39.307,35.389
	c-20.264,0-28.952-26.603-35.304-55.408c-2.348-9.437-6.247-31.627-11.917-67.815c-5.8-36.566-20.237-35.172-26.396-34.578
	c-2.348,0.215-11.594,2.471-34.936,22.684c-6.68,6.068-13.19,11.944-19.6,17.692c1.651-0.443,2.955-0.528,4.284-0.528
	c22.842,0,34.27,30.704,41.676,57.454c5.747,21.245,11.503,42.387,17.258,63.525l6.073,22.316
	c9.032,24.071,19.494,37.319,29.488,37.319c19.917,0,57.152-18.214,96.54-69.55c4.755-6.198,13.634-7.366,19.831-2.611
	c6.198,4.755,7.366,13.633,2.611,19.831C321.511,366.789,277.032,396.926,241.261,396.926z M268.029,278.176L268.029,278.176
	L268.029,278.176z M150.355,215.74L150.355,215.74L150.355,215.74z"/>
</svg>